PathFileType	4	(X/Y/Z)	/Users/itak/Documents/Research/Walk-IL/dataset/trc/00072_00006.trc
DataRate	CameraRate	NumFrames	NumMarkers	Units	OrigDataRate	OrigDataStartFrame	OrigNumFrames
100.000000	100.000000	4	53	mm	100.000000	91	734
Frame#	Time	RPSI			LPSI			L3			STRN			T10			C7			CLAV			RBAK			LBAK			LSHO			LUPA			LAEL			LAOL			LWTS			LWPS			LFRA			LIFD			LHPS			LHTS			RSHO			RUPA			RAEL			RAOL			RWTS			RWPS			RFRA			RIFD			RHTS			RHPS			RBHD			LFHD			RFHD			LBHD			LHIP			RHIP			RASI			LASI			LKNE			LTHI			LANK			LTIP			LTOE			LMT1			LMT5			LHEE			RKNE			RTHI			RANK			RTIP			RTOE			RMT1			RMT5			RHEE			
		X1	Y1	Z1	X2	Y2	Z2	X3	Y3	Z3	X4	Y4	Z4	X5	Y5	Z5	X6	Y6	Z6	X7	Y7	Z7	X8	Y8	Z8	X9	Y9	Z9	X10	Y10	Z10	X11	Y11	Z11	X12	Y12	Z12	X13	Y13	Z13	X14	Y14	Z14	X15	Y15	Z15	X16	Y16	Z16	X17	Y17	Z17	X18	Y18	Z18	X19	Y19	Z19	X20	Y20	Z20	X21	Y21	Z21	X22	Y22	Z22	X23	Y23	Z23	X24	Y24	Z24	X25	Y25	Z25	X26	Y26	Z26	X27	Y27	Z27	X28	Y28	Z28	X29	Y29	Z29	X30	Y30	Z30	X31	Y31	Z31	X32	Y32	Z32	X33	Y33	Z33	X34	Y34	Z34	X35	Y35	Z35	X36	Y36	Z36	X37	Y37	Z37	X38	Y38	Z38	X39	Y39	Z39	X40	Y40	Z40	X41	Y41	Z41	X42	Y42	Z42	X43	Y43	Z43	X44	Y44	Z44	X45	Y45	Z45	X46	Y46	Z46	X47	Y47	Z47	X48	Y48	Z48	X49	Y49	Z49	X50	Y50	Z50	X51	Y51	Z51	X52	Y52	Z52	X53	Y53	Z53	

92	0.91	281.1805419921875	1030.726684570312	992.8104858398438	295.0472717285156	1023.214782714844	1168.530151367188	287.0698547363281	1080.218505859375	1086.160766601562	47.06977081298828	1286.994873046875	1083.491455078125	312.4652404785156	1213.983520507812	1088.090087890625	261.8537292480469	1482.603881835938	1086.774658203125	81.10013580322266	1399.955078125	1083.168823242188	319.7005920410156	1340.555053710938	1014.133972167969	281.8159790039062	1446.887817382812	1189.107788085938	176.9735870361328	1455.493286132812	1260.143432617188	186.2489318847656	1327.756103515625	1338.161010742188	154.9721221923828	1112.821044921875	1354.747802734375	220.175048828125	1096.451171875	1271.311157226562	51.05766677856445	879.839111328125	1282.25732421875	105.7743759155273	864.543701171875	1343.071899414062	126.820686340332	1004.627868652344	1359.183837890625	28.17018508911133	699.28466796875	1254.026733398438	66.37273406982422	786.0001831054688	1334.67138671875	19.87095260620117	800.978271484375	1283.299438476562	198.4507904052734	1444.030029296875	910.0567626953125	207.2334136962891	1373.195068359375	847.6267700195312	222.749755859375	1104.484008789062	829.5390014648438	205.0233001708984	1087.731323242188	926.3035888671875	75.19365692138672	857.1285400390625	871.5880126953125	144.6489562988281	840.12353515625	822.2032470703125	207.1638031005859	1026.130859375	825.4655151367188	74.7525634765625	672.06689453125	901.1511840820312	48.56434631347656	754.879150390625	872.934814453125	106.7193756103516	750.2476806640625	820.654296875	226.8287658691406	1661.732299804688	1150.246459960938	84.674072265625	1700.000244140625	992.9122924804688	59.93105316162109	1714.513549804688	1115.659301757812	243.9955291748047	1639.851440429688	1015.6650390625	202.6634216308594	975.0852661132812	1272.589477539062	210.6551208496094	963.0828857421875	917.45556640625	87.52108764648438	979.363525390625	941.1543579101562	79.43997955322266	973.0662231445312	1209.841552734375	107.7283248901367	499.7786865234375	1215.5126953125	144.5331420898438	639.7379760742188	1251.311767578125	251.2006225585938	50.93430709838867	1244.549926757812	185.2222442626953	262.5310668945312	1241.297485351562	46.53463363647461	55.42095565795898	1234.366333007812	94.68193817138672	48.19617462158203	1181.470458984375	147.9957275390625	46.37839126586914	1280.360107421875	302.941162109375	44.31474685668945	1169.004150390625	150.6992340087891	517.8958129882812	934.6176147460938	134.4828948974609	788.2496337890625	908.2996826171875	241.2538604736328	40.43190002441406	942.8348999023438	175.0969848632812	396.4464416503906	928.4113159179688	25.54355239868164	49.68936920166016	969.9967041015625	84.35414886474609	50.03742218017578	1013.3017578125	118.7573013305664	49.03565216064453	922.4884643554688	286.5940856933594	41.09122085571289	1001.57177734375	
93	0.92	280.0802612304688	1030.85107421875	993.769287109375	293.9567565917969	1023.330444335938	1169.51611328125	285.9961242675781	1080.151489257812	1087.076904296875	46.10200500488281	1287.078857421875	1084.362915039062	311.4302062988281	1213.820922851562	1088.893920898438	261.0585327148438	1482.518310546875	1087.446655273438	80.19631958007812	1399.986083984375	1083.947998046875	318.7420043945312	1340.3486328125	1014.895629882812	281.0495910644531	1446.83447265625	1189.756591796875	176.2684936523438	1455.558349609375	1260.884399414062	185.6857299804688	1327.852905273438	1338.940307617188	154.7606811523438	1112.810546875	1355.4580078125	219.8961639404297	1096.61328125	1271.959838867188	50.86516952514648	879.9695434570312	1282.440795898438	105.6056518554688	864.5006713867188	1343.193969726562	126.5822601318359	1004.594787597656	1359.6689453125	28.18726348876953	699.42822265625	1253.74609375	66.25595855712891	785.986572265625	1334.602661132812	19.77169418334961	801.0744018554688	1283.311645507812	197.614013671875	1443.909545898438	910.7744140625	206.4541931152344	1373.064208984375	848.4014892578125	222.2903442382812	1104.448364257812	830.3792114257812	204.3545837402344	1087.644775390625	927.051513671875	74.77600860595703	856.9303588867188	871.8126831054688	144.46630859375	840.0427856445312	822.6365966796875	206.7686920166016	1026.0791015625	826.1874389648438	74.54400634765625	671.861328125	901.2460327148438	48.3691520690918	754.660400390625	873.0545043945312	106.643180847168	750.1101684570312	820.9066772460938	225.6769866943359	1661.893432617188	1150.937255859375	83.93899536132812	1699.887939453125	993.1392211914062	58.84992980957031	1714.54345703125	1115.833374023438	243.2093505859375	1639.852416992188	1016.403259277344	201.6061248779297	974.9487915039062	1273.598510742188	209.6420288085938	963.1832885742188	918.4744262695312	86.43505096435547	979.3404541015625	942.1341552734375	78.59133911132812	973.0094604492188	1210.939575195312	107.4040145874023	499.6796264648438	1215.84619140625	143.9347991943359	639.6666870117188	1251.950927734375	251.2332763671875	50.87474822998047	1244.64404296875	185.01513671875	262.4041748046875	1241.572631835938	46.60385131835938	55.50113296508789	1234.26123046875	94.75239562988281	48.25773239135742	1181.358520507812	147.9777526855469	46.38822174072266	1280.289184570312	303.0426940917969	44.26696014404297	1169.153930664062	150.3511657714844	517.9581909179688	935.1505126953125	133.572021484375	788.3091430664062	909.1416625976562	241.4101867675781	40.3582763671875	942.743896484375	174.9416198730469	396.559814453125	928.7227172851562	25.74089050292969	50.34675979614258	970.039794921875	84.52508544921875	50.37633514404297	1013.237487792969	118.9003143310547	49.2547721862793	922.4474487304688	286.7291259765625	41.03443145751953	1001.497131347656	
94	0.93	278.9202880859375	1030.997802734375	994.757568359375	292.8259887695312	1023.424987792969	1170.534423828125	284.85888671875	1080.102172851562	1088.0263671875	45.02811813354492	1287.143432617188	1085.276123046875	310.2957458496094	1213.661254882812	1089.737182617188	260.1627502441406	1482.43896484375	1088.174560546875	79.19618225097656	1400.0068359375	1084.772338867188	317.6985168457031	1340.144165039062	1015.704040527344	280.1805114746094	1446.781860351562	1190.461303710938	175.4526672363281	1455.617431640625	1261.676879882812	185.0328979492188	1327.954467773438	1339.78076171875	154.4579772949219	1112.801513671875	1356.23876953125	219.5430450439453	1096.775390625	1272.711059570312	50.63238906860352	880.0845336914062	1282.663696289062	105.3775634765625	864.4501953125	1343.38330078125	126.2638397216797	1004.557861328125	1360.219970703125	28.22848892211914	699.5361938476562	1253.522094726562	66.09041595458984	785.9703979492188	1334.6142578125	19.64291191101074	801.1355590820312	1283.364135742188	196.7100830078125	1443.784912109375	911.5445556640625	205.6130981445312	1372.930297851562	849.2354736328125	221.8369293212891	1104.417114257812	831.282958984375	203.6804046630859	1087.562622070312	927.8475341796875	74.30755615234375	856.7550048828125	872.01416015625	144.2746887207031	839.9688720703125	823.106689453125	206.3905029296875	1026.022216796875	826.966552734375	74.22982025146484	671.6884765625	901.3505249023438	48.10848617553711	754.4656372070312	873.1580810546875	106.5373687744141	749.979248046875	821.182373046875	224.4212493896484	1662.041015625	1151.680297851562	83.14969635009766	1699.775756835938	993.3572387695312	57.66747665405273	1714.589111328125	1115.976318359375	242.3585815429688	1639.834838867188	1017.198059082031	200.4586181640625	974.72607421875	1274.608642578125	208.5593566894531	963.2777099609375	919.52587890625	85.31114196777344	979.3124389648438	943.169189453125	77.74592590332031	972.939697265625	1212.080444335938	107.1174163818359	499.5841064453125	1216.204467773438	143.3728179931641	639.58203125	1252.625732421875	251.2629241943359	50.81663513183594	1244.740234375	184.8150939941406	262.2687683105469	1241.857666015625	46.64822769165039	55.52130508422852	1234.160522460938	94.82467651367188	48.26747131347656	1181.26513671875	147.9631500244141	46.34135437011719	1280.253051757812	303.1458740234375	44.22343826293945	1169.30712890625	150.0052795410156	518.0142822265625	935.7042236328125	132.6519165039062	788.3762817382812	910.007568359375	241.5631408691406	40.26976776123047	942.6417236328125	174.7619171142578	396.6633911132812	929.0632934570312	25.92489624023438	50.8798942565918	970.070068359375	84.68242645263672	50.67116928100586	1013.149719238281	119.0285186767578	49.431640625	922.3854370117188	286.8521118164062	40.97992706298828	1001.428039550781	
95	0.9400000000000001	277.714599609375	1031.156494140625	995.7705688476562	291.6710205078125	1023.486572265625	1171.579833984375	283.6741638183594	1080.07666015625	1089.007080078125	43.86005401611328	1287.181396484375	1086.236572265625	309.0713806152344	1213.515747070312	1090.627807617188	259.1522216796875	1482.372924804688	1088.963745117188	78.10250854492188	1400.014282226562	1085.647216796875	316.5722961425781	1339.953735351562	1016.565124511719	279.1928100585938	1446.73583984375	1191.22802734375	174.5068206787109	1455.677856445312	1262.520874023438	184.2790985107422	1328.065673828125	1340.685668945312	154.0541381835938	1112.797119140625	1357.095825195312	219.1175689697266	1096.944213867188	1273.5654296875	50.34516525268555	880.188232421875	1282.922607421875	105.0822143554688	864.4013061523438	1343.641845703125	125.8551406860352	1004.519897460938	1360.84228515625	28.28173637390137	699.6162719726562	1253.35107421875	65.85663604736328	785.957275390625	1334.701904296875	19.47693061828613	801.156982421875	1283.455688476562	195.7323608398438	1443.658325195312	912.3710327148438	204.7041473388672	1372.792846679688	850.1343383789062	221.3876800537109	1104.393920898438	832.2449340820312	202.9941558837891	1087.484008789062	928.6910400390625	73.79076385498047	856.61083984375	872.18896484375	144.0711517333984	839.906005859375	823.6105346679688	206.0367889404297	1025.9619140625	827.7997436523438	73.80770874023438	671.552001953125	901.4653930664062	47.77880477905273	754.301025390625	873.2399291992188	106.395751953125	749.86181640625	821.4805908203125	223.0454559326172	1662.173461914062	1152.472778320312	82.30213165283203	1699.661376953125	993.5654296875	56.37170791625977	1714.646240234375	1116.076293945312	241.4367980957031	1639.795776367188	1018.052307128906	199.1900177001953	974.3743896484375	1275.578002929688	207.4245147705078	963.3616943359375	920.6015625	84.16314697265625	979.2777099609375	944.2554321289062	76.90564727783203	972.8585205078125	1213.244140625	106.8545303344727	499.4886474609375	1216.599365234375	142.8346099853516	639.4788208007812	1253.334228515625	251.2955017089844	50.76167678833008	1244.842163085938	184.6257629394531	262.1284484863281	1242.154296875	46.67563629150391	55.49824142456055	1234.07568359375	94.900634765625	48.23730087280273	1181.206909179688	147.9620513916016	46.24277877807617	1280.260620117188	303.2537841796875	44.18330764770508	1169.463745117188	149.5823059082031	518.06201171875	936.3035278320312	131.7130584716797	788.4515991210938	910.9056396484375	241.7079315185547	40.16840362548828	942.5331420898438	174.4886016845703	396.7477722167969	929.447998046875	26.10783004760742	51.2663688659668	970.0831298828125	84.82949829101562	50.90068054199219	1013.047180175781	119.143180847168	49.55468368530273	922.30078125	286.9654541015625	40.92043304443359	1001.36083984375	
